<?xml version="1.0" encoding="utf-8"?>
<!-- Generator: Adobe Illustrator 26.0.3, SVG Export Plug-In . SVG Version: 6.00 Build 0)  -->
<svg version="1.1" id="Layer_1" xmlns="http://www.w3.org/2000/svg" xmlns:xlink="http://www.w3.org/1999/xlink" x="0px" y="0px"
	 viewBox="0 0 1100.9 304.3" style="enable-background:new 0 0 1100.9 304.3;" xml:space="preserve">
<style type="text/css">
	.st0{fill:none;}
	.st1{fill:#333333;fill-opacity:0;}
	.st2{fill-rule:evenodd;clip-rule:evenodd;fill:#6AA84F;}
	.st3{fill-rule:evenodd;clip-rule:evenodd;fill:#274E13;}
	.st4{fill:#333333;}
</style>
<rect x="-27.2" y="-44.3" class="st0" width="1168.3" height="390.1"/>
<g transform="translate(47.605003356933594,95)">
	<g transform="matrix(1,0,0,1,0,0)">
		<g>
			<rect x="-22.1" y="-71.5" class="st1" width="259.2" height="259.2"/>
			<g>
				<path class="st2" d="M-22.1-71.5H92.1c22.7,47.1,31.9,73.3,26.3,92.4c-7.6,26-110,75.2-140.6,91.6V-71.5z"/>
				<path class="st3" d="M99.4-71.5C122.1-30.8,136.1-9,155.7-3.3c18.4,5.2,41.6-3.6,81.3-24.3v-43.9H99.4z M237.1-20.5v193.3
					c-13.6-24-29.3-51.4-34.8-61.3c-19.8-36.3-30.4-58.1-27.6-75.8C177.7,16.3,196.8,2,237.1-20.5z"/>
				<path class="st2" d="M236.8,187.7c-14.8-25.9-35.3-60.7-41.5-72.3c-23.1-42.7-36.9-62-58.1-66.2c-20.6-4.1-127.6,54-159.4,71.2
					v67.2H236.8z"/>
			</g>
		</g>
	</g>
	<g transform="translate(67,5.812002182006836)">
		<g transform="matrix(1,0,0,1,0,0)">
			<g transform="scale(1)">
				<g>
					<path class="st4" d="M234.7,95.6c23.4,0,34.4-15.3,34.4-39.3V-10c0-23.4-11.4-36.4-34.4-36.4c-23.1,0-34.4,13-34.4,36.4v66.4
						C200.3,80.2,211.4,95.6,234.7,95.6z M234.7,70c-6,0-6.8-5.5-6.8-12.2v-68c0-7,2.3-10.5,7-10.5c5.3,0,6.1,4.7,6.1,10.2v68.2
						C241,64,240.4,70,234.7,70z M315.4-3.9c4.6,0,6.3,4.7,6.3,9.4v88.8h27.9V2.7c0-17.2-6.7-28.4-23.5-28.4
						c-10.5,0-15.7,7.6-17.9,16.4v-15.1h-28.4V94.3h28.4V10.8C308.2,3.5,308.8-3.9,315.4-3.9z M360.8,94.3h28.9V-45.8h-28.9V94.3z
						 M400.9-32.4h28.4v-19.8h-28.4V-32.4z M400.9,94.3h28.4V-24.5h-28.4V94.3z M476-3.9c4.6,0,6.4,4.7,6.4,9.4v88.8h27.9V2.7
						c0-17.2-6.7-28.4-23.5-28.4c-10.5,0-15.7,7.6-17.8,16.4v-15.1h-28.4V94.3h28.4V10.8C468.9,3.5,469.4-3.9,476-3.9z M554.7,95.6
						c26.8,0,35.7-13.3,35.7-40.4v-6.8h-28.2v11.5c0,7.2,0.3,13.8-6.5,13.8c-6.3,0-6.8-6.3-6.8-13.1V37.5h41.2
						c0.2-5.4,0.3-12.4,0.3-21.1V7.9c0-22.4-11.4-33.6-34.2-33.6c-22.2,0-35.7,11.5-35.7,33.6v47.7
						C520.5,81.2,529.4,95.6,554.7,95.6z M562.2,23.4h-13.5V8.2c0-8.5,2.4-12.8,7.1-12.8c4.2,0,6.4,4.3,6.4,12.8V23.4z M672.2,95.6
						c24.6,0,32.4-16.3,32.4-41.9c0-19.4-7.7-28.4-17.7-38.1L670.7,0.1c-5.2-4.9-7.8-9.6-7.8-14.1c0-4.2,2.2-6.7,6.5-6.7
						c3.7,0,5.8,2.3,5.8,6l0.2,9.5h28.4c0-27-9.1-41.2-35.4-41.2c-22,0-32.1,13.9-32.1,36.5c0,11.1,4.6,21.1,14,30.2l12,12
						c4.3,4.2,7.3,7.3,9,9.3c3.7,4.4,5.7,10.2,5.7,18.7c0,6.1-1,9.6-6.7,9.6c-4.4,0-6.7-3.5-6.7-10.4V42.2h-27.4v13.7
						C636.4,82.8,645.9,95.6,672.2,95.6z M737.9,95.6c4.9,0,12.4-1.1,16.1-2.1V74c-1.2,0-3.5,0.3-5.1,0.3c-3.1,0-3.1-2.5-3.1-6V1.7
						h8.1v-21.6h-8.1v-25.2h-27.6v25.2h-7.9V1.7h7.9v74.2C718.3,90.1,723.3,95.6,737.9,95.6z M797.5-25.8
						c-22.2,0-35.5,14.6-35.5,36.8v47.7c0,24.6,11.8,36.8,35.5,36.8c23.7,0,35.6-12.3,35.6-36.8V11.1
						C833-11.2,819.7-25.8,797.5-25.8z M797.5,73.7c-4.9,0-6.7-4-6.7-9.1V6.6c0-6.9,2.2-10.4,6.7-10.4c4.4,0,6.7,3.5,6.7,10.4v58.1
						C804.1,69.8,802.4,73.7,797.5,73.7z M892.4-2.2v-23.7c-11,0-17.8,5.9-20.4,14.6v-13.2h-28.4V94.3H872V3.4
						C872-0.4,887.8-2.2,892.4-2.2z M932.6,95.6c26.8,0,35.7-13.3,35.7-40.4v-6.8h-28.3v11.5c0,7.2,0.3,13.8-6.5,13.8
						c-6.3,0-6.8-6.3-6.8-13.1V37.5H968c0.2-5.4,0.3-12.4,0.3-21.1V7.9c0-22.4-11.4-33.6-34.3-33.6c-22.2,0-35.7,11.5-35.7,33.6
						v47.7C898.4,81.2,907.4,95.6,932.6,95.6z M940.1,23.4h-13.5V8.2c0-8.5,2.4-12.8,7.2-12.8c4.2,0,6.3,4.3,6.3,12.8V23.4z"/>
				</g>
			</g>
		</g>
		<g transform="matrix(1,0,0,1,5,40.21999740600586)">
			<rect x="216.9" y="96.8" class="st4" width="287.5" height="4.3"/>
			<rect x="654.3" y="96.8" class="st4" width="287.5" height="4.3"/>
			<g transform="translate(69.54499626159668,0)">
				<g transform="scale(1)">
					<path class="st4" d="M447.8,82v34h8.7c2.5,0,4.8-0.4,6.8-1.2c1.9-0.8,3.6-1.9,5-3.4s2.4-3.3,3.1-5.4s1-4.5,1-7.2
						c0-5.4-1.4-9.6-4.1-12.5c-2.7-2.9-6.7-4.4-12-4.4H447.8z M456,112.4h-3.9v-27h3.9c4,0,7,1.2,8.9,3.5c2,2.2,3,5.6,3,9.9
						s-1,7.6-3,10.1C463,111.3,460,112.4,456,112.4z M479.7,82v34h20.1v-3.7H484V99.9h12.9v-3.7H484V85.6h15.3V82H479.7z M507,82v34
						h4V97.3c0-1.5-0.1-3.2-0.2-5.1c-0.1-1.8-0.3-3.5-0.3-5h0.2l2.7,7.6l6.6,17.8h2.5l6.5-17.8l2.7-7.6h0.2c-0.1,1.5-0.3,3.2-0.4,5
						c-0.1,1.9-0.2,3.5-0.2,5.1V116h4.1V82h-5.1l-6.5,18.2l-2.4,7h-0.2l-2.5-7L512.1,82H507z M557.2,116.6c2.2,0,4.1-0.4,5.9-1.2
						c1.8-0.9,3.3-2,4.6-3.6c1.3-1.5,2.3-3.4,3-5.6c0.7-2.2,1-4.7,1-7.4c0-2.7-0.3-5.1-1-7.3c-0.7-2.2-1.7-4-3-5.5
						c-1.3-1.5-2.8-2.7-4.6-3.5c-1.8-0.8-3.7-1.3-5.9-1.3c-2.1,0-4.1,0.4-5.9,1.2c-1.8,0.8-3.3,1.9-4.6,3.5c-1.3,1.5-2.3,3.3-3,5.5
						c-0.7,2.2-1.1,4.6-1.1,7.3c0,2.7,0.3,5.2,1.1,7.4c0.7,2.2,1.7,4.1,3,5.6c1.3,1.6,2.8,2.7,4.6,3.6
						C553.1,116.2,555.1,116.6,557.2,116.6z M557.2,112.8c-1.5,0-2.9-0.3-4.1-1c-1.3-0.6-2.3-1.6-3.2-2.8c-0.9-1.3-1.6-2.7-2.1-4.4
						c-0.5-1.7-0.7-3.7-0.7-5.8c0-2.1,0.3-4,0.7-5.7c0.5-1.7,1.2-3.2,2.1-4.3c0.9-1.2,1.9-2.1,3.2-2.7c1.2-0.6,2.6-1,4.1-1
						c1.5,0,2.9,0.3,4.1,1c1.2,0.6,2.2,1.6,3.2,2.7c0.9,1.2,1.6,2.6,2,4.3s0.7,3.6,0.7,5.7c0,2.1-0.3,4.1-0.7,5.8
						c-0.5,1.7-1.2,3.2-2,4.4c-0.9,1.2-1.9,2.2-3.2,2.8C560.1,112.5,558.7,112.8,557.2,112.8z"/>
				</g>
			</g>
		</g>
	</g>
</g>
</svg>
